<?xml version="1.0" standalone="no"?>
<!DOCTYPE svg PUBLIC "-//W3C//DTD SVG 20010904//EN"
 "http://www.w3.org/TR/2001/REC-SVG-20010904/DTD/svg10.dtd">
<svg version="1.0" xmlns="http://www.w3.org/2000/svg"
 width="2000.000000pt" height="2000.000000pt" viewBox="0 0 2000.000000 2000.000000"
 preserveAspectRatio="xMidYMid meet">

<g transform="translate(0.000000,2000.000000) scale(0.100000,-0.100000)"
fill="#000000" stroke="none">
<path d="M10459 18768 c-5 -13 -203 -1918 -199 -1918 3 0 115 -12 248 -26 134
-14 245 -24 247 -22 1 2 18 149 36 326 19 178 37 328 40 334 5 8 115 -1 350
-25 188 -20 345 -35 347 -33 3 4 51 429 48 433 -1 1 -157 18 -346 38 -190 20
-347 39 -350 41 -5 6 28 335 34 342 3 3 180 -13 393 -36 213 -22 389 -39 390
-38 3 3 51 450 49 452 -1 3 -1258 134 -1273 134 -7 0 -13 -1 -14 -2z"/>
<path d="M8952 18676 c-147 -19 -256 -37 -260 -43 -4 -7 -104 -424 -222 -927
-118 -504 -218 -916 -223 -916 -5 0 -583 416 -606 436 -2 2 21 30 50 62 98
105 149 231 149 367 0 92 -20 170 -72 275 -94 193 -272 300 -499 300 -102 0
-207 -18 -310 -54 -147 -52 -804 -323 -802 -332 1 -8 714 -1776 718 -1781 3
-5 449 177 458 186 5 5 -48 149 -118 320 -69 171 -123 315 -121 320 3 5 32 18
65 31 l59 22 312 -245 313 -246 46 19 c25 10 138 55 251 100 l205 82 211 26
212 26 38 191 39 190 323 40 c221 28 325 38 331 30 4 -5 43 -84 85 -175 l77
-166 267 33 c147 18 274 34 283 35 12 2 -96 220 -455 915 l-471 913 -40 -1
c-22 -1 -154 -16 -293 -33z m355 -1108 c-30 -9 -383 -51 -394 -47 -5 2 21 144
59 314 37 171 68 312 69 315 0 3 65 -125 144 -285 136 -275 142 -290 122 -297z
m-2056 195 c69 -41 120 -166 99 -245 -13 -48 -72 -109 -137 -142 -59 -29 -274
-118 -277 -114 -16 23 -156 390 -152 396 7 12 246 108 301 121 54 13 129 6
166 -16z"/>
<path d="M12700 18313 c-345 -60 -615 -271 -752 -585 -168 -388 -104 -796 172
-1091 161 -172 414 -302 659 -338 112 -16 292 -6 401 21 351 90 620 362 717
728 36 135 39 353 5 486 -69 277 -258 516 -515 651 -105 55 -237 101 -345 120
-78 14 -282 18 -342 8z m315 -488 c252 -65 409 -271 392 -515 -11 -168 -104
-351 -224 -442 -83 -63 -158 -90 -263 -95 -237 -13 -454 131 -520 344 -85 276
99 637 360 707 72 19 181 20 255 1z"/>
<path d="M14125 16758 c-308 -424 -561 -776 -562 -782 -2 -9 370 -285 396
-294 6 -2 352 463 403 541 6 10 34 -6 102 -58 19 -15 19 -21 -23 -412 -34
-320 -40 -398 -29 -404 7 -4 114 -82 238 -172 l225 -165 7 36 c4 21 19 210 33
422 14 212 28 406 31 431 l5 46 57 -13 c281 -66 549 89 660 384 35 91 36 235
3 332 -68 198 -164 296 -623 628 -191 139 -351 252 -355 252 -4 0 -260 -347
-568 -772z m860 57 c153 -112 215 -188 215 -262 -1 -63 -69 -166 -132 -199
-37 -19 -109 -18 -167 5 -61 23 -294 190 -287 206 2 6 57 85 122 174 78 107
123 160 132 156 8 -3 60 -39 117 -80z"/>
<path d="M5240 17235 c-217 -48 -409 -155 -569 -316 -402 -405 -399 -1018 7
-1426 410 -412 1056 -385 1481 62 120 126 194 255 248 432 24 81 27 102 27
258 0 204 -15 270 -98 440 -129 262 -369 463 -641 536 -104 28 -356 36 -455
14z m293 -495 c124 -38 236 -134 319 -271 163 -269 69 -583 -216 -723 -192
-95 -406 -57 -560 98 -235 235 -260 534 -64 743 145 152 339 209 521 153z"/>
<path d="M16056 15853 c-98 -296 -190 -576 -205 -623 l-27 -85 -284 -247
c-157 -137 -292 -256 -302 -266 -17 -17 -11 -25 143 -202 88 -102 167 -184
174 -184 7 1 144 116 304 255 l292 254 640 117 c352 64 645 118 650 120 6 2
-70 96 -169 209 l-179 205 -363 -73 c-200 -40 -365 -72 -366 -70 -2 2 51 160
117 351 66 191 118 353 116 359 -5 13 -356 417 -361 417 -2 0 -83 -242 -180
-537z"/>
<path d="M3720 15886 c-168 -59 -272 -125 -401 -256 -159 -161 -267 -343 -321
-538 -18 -64 -22 -105 -22 -242 0 -152 2 -172 28 -254 74 -244 227 -439 463
-593 412 -269 878 -214 1224 144 175 182 295 385 349 592 23 85 47 248 38 256
-4 4 -449 83 -475 85 -2 0 -3 -19 -3 -42 -1 -109 -58 -277 -135 -393 -63 -96
-164 -188 -251 -231 -68 -34 -86 -39 -169 -42 -112 -5 -180 12 -278 69 -219
129 -326 346 -272 552 30 117 124 261 225 344 64 54 182 112 240 120 22 3 40
11 40 17 0 5 -37 106 -81 223 -93 243 -80 231 -199 189z"/>
<path d="M17049 14414 c-339 -61 -651 -311 -768 -614 -55 -141 -65 -200 -65
-370 -1 -131 3 -169 23 -245 120 -460 466 -775 905 -824 343 -39 727 137 924
422 248 361 243 808 -15 1195 -222 334 -618 506 -1004 436z m406 -537 c93 -43
158 -98 213 -181 150 -224 131 -462 -51 -640 -111 -110 -283 -185 -423 -186
-234 -1 -437 178 -490 430 -20 95 -7 196 36 289 41 86 150 194 250 246 116 60
177 75 300 72 90 -2 113 -7 165 -30z"/>
<path d="M2070 13584 c-160 -344 -288 -629 -283 -633 24 -22 1737 -811 1743
-804 19 20 589 1258 582 1265 -4 3 -93 47 -198 96 l-192 90 -188 -405 c-104
-223 -191 -406 -194 -408 -3 -1 -70 28 -150 66 -80 38 -149 70 -154 72 -4 1
62 153 148 337 85 183 155 335 153 336 -10 9 -358 166 -361 163 -2 -2 -72
-151 -156 -331 -84 -181 -155 -328 -158 -328 -13 0 -272 124 -272 131 0 4 83
186 185 404 102 219 184 398 183 399 -17 11 -380 176 -386 176 -5 0 -141 -282
-302 -626z"/>
<path d="M11046 13979 c-31 -8 -62 -34 -77 -61 -5 -10 -36 -136 -69 -280 -33
-145 -62 -268 -64 -274 -3 -7 -82 -3 -247 13 -333 30 -361 30 -399 -4 -53 -48
-57 -135 -8 -180 13 -11 129 -82 258 -158 129 -76 237 -139 239 -141 2 -2 -46
-117 -107 -256 -60 -139 -113 -263 -117 -276 -10 -33 12 -88 46 -117 24 -19
42 -25 80 -25 54 0 36 -14 345 257 l152 132 215 -186 215 -187 -65 -38 c-199
-116 -362 -307 -429 -504 -22 -64 -28 -103 -32 -200 -5 -148 8 -223 78 -432
80 -240 91 -296 97 -482 6 -195 -2 -237 -56 -291 -61 -61 -76 -63 -466 -64
-379 -2 -445 -9 -564 -61 -169 -75 -314 -237 -391 -438 -73 -189 -98 -468 -65
-731 24 -187 24 -340 2 -381 -20 -39 -79 -69 -167 -84 -39 -7 -207 -13 -420
-15 -285 -2 -369 -6 -425 -19 -169 -39 -284 -105 -425 -246 -160 -159 -254
-313 -325 -530 -20 -63 -44 -128 -52 -144 -13 -26 -13 -29 4 -41 10 -7 54 -41
98 -75 74 -57 80 -60 93 -43 25 32 69 135 97 228 70 234 256 474 435 561 112
55 127 57 515 59 224 1 386 7 429 14 257 44 378 155 407 371 10 70 8 115 -7
265 -22 210 -24 460 -5 560 31 161 86 275 175 366 122 125 176 136 666 130
187 -2 251 1 315 14 209 44 326 151 371 341 13 56 15 105 11 254 -6 212 -21
292 -105 550 -65 198 -76 259 -70 371 5 81 10 100 47 174 28 57 64 107 113
160 185 198 384 269 798 283 l185 7 3 123 3 122 -145 0 c-197 0 -363 -18 -508
-55 -27 -7 -28 -5 -28 27 0 22 -40 126 -110 287 -60 138 -110 255 -110 259 0
4 111 73 246 152 260 152 284 172 284 238 0 40 -22 85 -52 106 -30 21 -110 20
-397 -8 l-233 -22 -8 20 c-4 12 -34 138 -66 281 -48 215 -63 265 -84 288 -28
32 -81 47 -124 36z m48 -750 c16 -99 58 -134 159 -132 37 1 67 1 67 -1 0 -2
-21 -16 -46 -31 -81 -48 -102 -110 -64 -194 29 -63 25 -68 -21 -27 -45 41 -77
56 -118 56 -26 0 -45 -11 -120 -68 l-30 -23 25 63 c39 95 22 145 -69 199 l-52
31 59 -6 c104 -9 158 29 177 126 13 65 23 68 33 7z"/>
<path d="M8443 13426 c-281 -117 -323 -139 -344 -179 -11 -19 -49 -516 -49
-637 0 -84 12 -110 60 -135 16 -8 43 -15 60 -15 17 0 168 57 336 126 324 134
348 149 358 217 15 92 45 648 37 670 -5 13 -24 36 -41 50 -56 48 -89 40 -417
-97z m193 -313 c-4 -65 -9 -139 -13 -164 l-5 -46 -151 -61 c-83 -34 -152 -60
-154 -58 -4 4 16 319 21 323 5 6 291 122 300 123 5 0 6 -51 2 -117z"/>
<path d="M10007 12533 c-4 -3 -7 -18 -7 -32 0 -42 -42 -104 -86 -128 -68 -38
-164 -46 -444 -39 -276 7 -393 -1 -493 -35 -247 -82 -429 -312 -502 -634 -25
-109 -31 -419 -11 -580 20 -164 21 -304 2 -350 -8 -18 -26 -41 -41 -51 -64
-42 -115 -47 -520 -54 -323 -5 -403 -9 -465 -24 -222 -53 -433 -215 -585 -451
-74 -113 -102 -172 -151 -319 -24 -71 -50 -139 -58 -151 -14 -21 -11 -24 57
-75 40 -29 86 -64 103 -77 l31 -23 31 58 c17 32 48 110 68 173 41 128 67 183
132 284 63 97 211 242 291 284 116 61 129 63 566 71 435 8 469 12 589 70 106
50 172 130 202 245 19 68 17 251 -2 410 -22 174 -14 424 16 545 54 217 178
366 345 416 53 16 104 18 415 19 389 1 408 3 536 65 111 54 204 184 220 306 7
61 11 59 -116 69 -47 4 -92 8 -101 11 -8 2 -18 1 -22 -3z"/>
<path d="M18077 12325 c-317 -62 -607 -123 -645 -136 -364 -120 -568 -407
-549 -774 23 -442 235 -746 584 -836 102 -26 238 -34 338 -20 113 16 1178 223
1187 230 4 4 -14 116 -39 249 -37 190 -50 242 -62 242 -15 0 -211 -37 -846
-162 -269 -52 -321 -60 -396 -56 -98 5 -155 31 -208 95 -55 66 -75 134 -75
253 -1 98 1 109 28 158 34 60 87 103 162 132 29 10 314 70 633 132 520 100
581 114 581 131 0 15 -66 369 -85 455 -3 12 -11 22 -18 21 -6 0 -272 -52 -590
-114z"/>
<path d="M2141 12235 c-352 -77 -612 -328 -716 -693 -21 -71 -167 -795 -162
-798 15 -7 1890 -365 1893 -361 3 3 37 165 76 359 63 319 70 368 75 509 4 124
2 174 -12 240 -41 207 -107 331 -250 474 -113 113 -203 170 -350 221 -173 60
-405 81 -554 49z m333 -535 c102 -26 168 -63 237 -130 123 -122 151 -268 100
-520 -16 -80 -19 -85 -42 -82 -40 4 -941 181 -945 185 -7 7 37 208 58 265 54
146 153 244 293 288 63 20 210 17 299 -6z"/>
<path d="M7583 11876 c-97 -32 -187 -117 -222 -212 -32 -83 -26 -206 13 -282
134 -263 509 -260 641 5 26 51 29 69 30 148 0 82 -3 96 -33 157 -36 75 -95
133 -170 169 -59 28 -195 36 -259 15z m166 -250 c76 -40 60 -161 -25 -185 -71
-20 -134 28 -134 102 0 78 84 121 159 83z"/>
<path d="M9950 11631 c-89 -29 -141 -60 -206 -125 -73 -73 -119 -162 -136
-263 -38 -228 109 -464 335 -535 129 -40 296 -19 406 51 117 76 203 205 224
341 36 237 -121 473 -357 536 -71 19 -199 17 -266 -5z m266 -267 c30 -18 60
-48 79 -78 56 -92 35 -222 -47 -291 -53 -45 -94 -57 -173 -53 -87 4 -141 35
-185 104 -75 118 -35 262 90 327 48 25 64 28 121 25 52 -3 77 -10 115 -34z"/>
<path d="M12533 10734 c-21 -8 -39 -14 -39 -14 -17 -2 -47 -102 -95 -313 -33
-144 -62 -269 -64 -277 -5 -14 -31 -13 -248 7 -133 12 -270 22 -305 23 -57 0
-65 -3 -98 -33 -26 -23 -37 -43 -40 -72 -10 -78 7 -93 277 -251 134 -79 248
-144 252 -146 4 -2 -42 -118 -103 -258 -62 -140 -114 -269 -117 -286 -7 -41
19 -95 56 -117 34 -20 93 -22 124 -5 18 9 323 269 417 354 l25 23 190 -165
c105 -91 208 -179 229 -195 88 -66 206 -14 206 91 0 17 -49 142 -110 282 -60
139 -110 258 -110 264 0 6 111 76 246 155 136 79 253 154 261 166 23 35 27 95
9 131 -36 70 -73 73 -436 38 -129 -12 -236 -22 -238 -21 -1 1 -29 121 -63 266
-33 145 -65 276 -71 292 -22 56 -90 83 -155 61z m63 -760 c25 -96 68 -126 175
-117 l54 4 -46 -29 c-91 -59 -109 -113 -69 -207 11 -26 20 -49 20 -51 0 -3
-22 13 -49 36 -33 28 -62 43 -89 47 -44 6 -67 -4 -129 -55 -24 -19 -43 -32
-43 -29 0 3 9 24 20 48 22 50 26 106 8 144 -6 14 -37 42 -67 61 l-56 36 59 -5
c103 -10 155 29 176 129 7 31 14 54 16 51 2 -2 11 -30 20 -63z"/>
<path d="M8812 10376 c-216 -90 -402 -172 -412 -181 -10 -9 -23 -28 -29 -43
-10 -26 -61 -721 -61 -834 0 -46 5 -62 26 -87 34 -41 83 -54 137 -37 60 19
748 305 775 322 47 30 51 59 81 489 16 243 24 422 19 441 -12 44 -59 85 -104
90 -33 3 -101 -22 -432 -160z m262 -418 l-17 -255 -225 -93 c-124 -51 -234
-95 -245 -98 -18 -5 -19 -1 -14 49 4 30 12 142 18 249 6 107 16 199 20 205 10
10 472 204 477 200 2 -2 -5 -117 -14 -257z"/>
<path d="M7204 9490 c-125 -19 -233 -77 -321 -174 -185 -202 -176 -517 21
-711 211 -208 542 -208 750 0 75 75 121 162 143 272 15 70 16 93 5 163 -42
289 -313 493 -598 450z m195 -272 c203 -96 211 -369 13 -486 -41 -24 -57 -27
-132 -27 -68 0 -93 5 -126 22 -88 47 -143 127 -151 223 -19 209 202 358 396
268z"/>
<path d="M10831 9489 c-225 -39 -388 -265 -354 -490 34 -215 214 -369 433
-369 218 0 395 150 432 367 48 288 -216 543 -511 492z m124 -250 c93 -25 153
-110 141 -198 -8 -62 -45 -114 -98 -140 -120 -58 -256 12 -274 140 -12 86 48
172 136 197 47 14 49 14 95 1z"/>
<path d="M9264 7894 c-17 -8 -39 -30 -48 -47 -9 -18 -43 -151 -76 -296 -33
-146 -62 -266 -64 -268 -2 -2 -129 8 -282 22 -153 15 -292 24 -310 20 -20 -3
-45 -20 -63 -41 -40 -46 -43 -108 -7 -151 14 -16 131 -92 261 -168 130 -76
239 -143 241 -149 3 -7 -45 -125 -106 -264 -125 -286 -130 -309 -79 -366 35
-40 82 -54 129 -38 16 6 125 93 241 194 116 101 214 184 218 186 4 1 101 -79
216 -179 115 -100 224 -188 241 -197 67 -31 154 16 168 92 8 40 5 45 -128 350
-53 121 -93 223 -89 227 5 4 117 71 250 149 149 87 248 151 259 168 24 37 22
102 -4 139 -41 57 -51 58 -373 29 -160 -15 -292 -26 -294 -24 -1 2 -28 120
-60 263 -32 143 -64 275 -71 292 -25 63 -105 89 -170 57z m101 -821 c27 -40
72 -56 144 -50 52 4 62 2 47 -7 -64 -38 -102 -75 -115 -112 -13 -36 -12 -44
11 -102 14 -34 22 -62 17 -62 -4 0 -11 5 -14 11 -4 6 -25 24 -47 40 -32 22
-52 29 -88 29 -41 0 -55 -6 -96 -40 -26 -22 -49 -38 -51 -36 -2 2 6 24 17 50
38 90 21 145 -60 195 -27 17 -50 32 -50 33 0 2 33 3 74 3 69 0 77 2 105 29 16
15 32 40 36 55 3 14 11 44 17 66 l11 40 14 -60 c7 -32 20 -69 28 -82z"/>
<path d="M2627 7692 l-165 -200 -159 -52 c-87 -29 -162 -56 -167 -60 -4 -5 -3
-24 3 -43 l12 -34 169 54 170 54 252 -65 c139 -36 253 -64 255 -63 9 10 -25
81 -42 88 -11 5 -103 29 -205 55 -102 25 -186 47 -189 49 -3 3 143 183 256
316 10 12 11 23 2 50 -7 19 -15 38 -19 42 -4 5 -82 -81 -173 -191z"/>
<path d="M17597 7699 c-87 -21 -169 -77 -221 -152 -32 -46 -126 -286 -126
-321 0 -8 138 -60 368 -139 203 -70 373 -127 378 -127 5 0 29 60 54 133 41
120 45 141 45 227 0 82 -4 103 -27 152 -78 167 -290 270 -471 227z m224 -108
c72 -27 137 -85 169 -147 37 -72 35 -199 -4 -304 -16 -41 -29 -76 -31 -78 -3
-4 -589 199 -599 208 -13 13 41 164 78 218 34 50 107 106 160 122 50 15 165 6
227 -19z"/>
<path d="M2700 7095 c-121 -38 -212 -114 -263 -222 -30 -64 -32 -75 -32 -178
0 -103 2 -114 32 -177 61 -130 172 -215 311 -239 172 -30 375 77 448 236 103
226 -11 496 -243 576 -67 23 -186 25 -253 4z m256 -94 c60 -27 128 -91 159
-151 72 -140 46 -294 -67 -395 -96 -87 -246 -119 -360 -75 -69 26 -136 87
-175 161 -25 49 -28 64 -28 154 0 97 1 103 35 159 49 82 131 142 227 166 57
14 153 5 209 -19z"/>
<path d="M17083 6846 l-100 -223 365 -162 c201 -89 368 -159 372 -154 9 11
190 421 190 431 0 9 -43 32 -59 32 -4 0 -43 -81 -87 -180 -43 -99 -83 -180
-87 -180 -11 0 -259 110 -269 119 -5 4 24 78 63 165 38 87 69 159 67 161 -9 8
-48 25 -56 25 -5 0 -28 -42 -50 -93 -22 -51 -54 -123 -71 -160 l-30 -66 -113
50 c-62 28 -116 54 -121 58 -4 4 25 79 64 167 39 87 75 168 79 180 7 18 3 24
-25 37 l-33 16 -99 -223z"/>
<path d="M16797 6270 c-70 -126 -127 -233 -127 -237 0 -4 13 -16 30 -25 l29
-17 49 87 c27 48 75 134 107 191 l58 105 178 -357 c150 -298 184 -359 208
-372 29 -14 30 -14 49 18 55 90 242 435 242 445 0 6 -13 18 -29 27 l-30 15
-54 -98 c-30 -53 -80 -142 -110 -196 l-55 -99 -179 354 c-148 295 -183 357
-209 371 l-30 18 -127 -230z"/>
<path d="M3155 6270 c-121 -70 -239 -144 -262 -164 -67 -58 -95 -115 -101
-201 -4 -66 -2 -80 26 -138 61 -132 151 -197 273 -197 37 0 85 6 107 14 31 11
484 266 501 281 2 2 -6 20 -18 39 l-22 34 -246 -141 c-239 -138 -247 -142
-312 -145 -61 -4 -70 -2 -116 30 -91 61 -139 193 -101 281 24 57 86 103 311
232 121 70 224 130 228 135 10 8 -24 70 -38 69 -5 0 -109 -58 -230 -129z"/>
<path d="M16552 5862 l-20 -37 339 -212 339 -212 21 30 c11 16 19 34 17 39 -2
7 -365 238 -664 422 -6 4 -20 -9 -32 -30z"/>
<path d="M3477 5480 c-174 -127 -317 -235 -317 -240 0 -5 10 -21 23 -36 l23
-27 132 97 c72 53 136 96 141 96 10 0 81 -93 81 -106 0 -5 -29 -98 -64 -206
l-63 -198 30 -40 c16 -23 31 -40 32 -38 1 2 31 94 65 205 l63 202 39 -31 c102
-80 219 -75 307 13 19 18 40 48 47 66 20 47 17 130 -6 181 -21 46 -197 292
-209 292 -3 0 -149 -104 -324 -230z m380 37 c79 -108 93 -137 93 -189 0 -48
-20 -84 -65 -120 -39 -30 -126 -32 -169 -3 -29 19 -166 196 -166 214 0 9 228
180 241 181 3 0 33 -37 66 -83z"/>
<path d="M16221 5374 c-12 -15 -21 -30 -21 -35 0 -7 620 -461 639 -467 7 -2
275 358 269 362 -28 20 -54 36 -59 36 -4 0 -53 -63 -109 -140 -56 -77 -104
-141 -108 -144 -4 -2 -136 90 -294 205 -159 115 -290 209 -292 209 -3 0 -14
-12 -25 -26z"/>
<path d="M4153 4616 c-101 -212 -183 -389 -183 -393 0 -5 12 -21 28 -35 l27
-25 385 158 c212 87 389 160 395 162 12 4 -35 66 -51 66 -6 1 -157 -60 -334
-134 -177 -75 -324 -134 -327 -132 -2 3 66 150 152 327 l155 322 -27 33 c-16
19 -30 34 -33 34 -3 1 -87 -172 -187 -383z"/>
<path d="M15896 4971 l-28 -29 197 -384 c109 -211 199 -384 200 -386 1 -1 15
14 31 35 l28 37 -50 95 c-27 52 -49 98 -49 102 0 4 55 70 122 147 l123 141
106 -36 106 -35 31 30 c17 17 29 34 26 36 -5 5 -802 276 -811 276 -3 0 -17
-13 -32 -29z m300 -146 c103 -36 189 -67 191 -69 5 -4 -197 -236 -206 -236 -4
0 -19 24 -33 53 -15 28 -59 112 -97 185 -46 86 -66 132 -57 132 8 0 99 -29
202 -65z"/>
<path d="M15431 4481 l-174 -168 278 -287 c153 -158 281 -285 285 -284 4 2 84
77 179 169 l171 165 -27 26 -28 27 -146 -139 -146 -139 -109 110 -109 110 130
124 130 123 -27 28 -27 27 -126 -123 -126 -124 -95 95 -96 94 147 140 146 140
-28 27 -28 26 -174 -167z"/>
<path d="M4623 4127 l-272 -292 31 -29 31 -28 32 33 c18 19 142 151 274 293
l241 260 -27 28 c-15 15 -29 28 -32 28 -3 -1 -128 -132 -278 -293z"/>
<path d="M5035 4134 c-47 -26 -76 -56 -96 -99 -37 -79 -21 -139 75 -284 35
-53 71 -110 80 -128 36 -71 10 -155 -59 -187 -31 -15 -44 -16 -82 -7 -89 23
-190 113 -233 209 -25 55 -29 58 -73 39 l-28 -12 36 -72 c64 -128 197 -231
313 -241 101 -9 197 57 223 152 20 73 2 120 -111 292 -78 118 -91 159 -66 210
32 69 119 93 195 54 75 -38 151 -121 167 -184 8 -35 16 -38 54 -25 27 10 31
15 25 38 -19 79 -113 186 -201 231 -63 31 -174 39 -219 14z"/>
<path d="M15038 4096 c-52 -19 -76 -35 -210 -144 l-118 -94 29 -37 c214 -266
468 -575 476 -578 6 -1 23 7 38 20 l29 23 -108 133 -108 134 49 43 c28 24 55
44 60 44 6 0 100 -25 210 -54 l199 -54 40 31 c47 38 61 31 -184 93 -102 26
-186 48 -188 49 -2 2 11 25 28 51 60 95 62 167 8 249 -55 83 -165 123 -250 91z
m126 -90 c46 -27 86 -89 86 -132 0 -16 -10 -47 -23 -68 -22 -40 -182 -185
-204 -186 -12 0 -193 217 -193 232 0 13 164 140 205 159 53 25 80 24 129 -5z"/>
<path d="M5414 3482 c-126 -173 -230 -320 -232 -326 -1 -7 11 -22 28 -34 l30
-23 64 88 c233 319 406 559 406 563 0 3 -15 15 -33 26 l-33 22 -230 -316z"/>
<path d="M14431 3654 l-44 -27 5 -208 c3 -115 3 -211 1 -213 -3 -2 -91 37
-197 88 l-191 93 -42 -27 -42 -26 239 -113 240 -114 92 -149 c51 -81 97 -148
101 -148 5 0 22 9 37 20 l29 21 -95 151 -96 152 4 263 c1 145 3 263 3 263 0 0
-20 -12 -44 -26z"/>
<path d="M5873 3505 c-122 -33 -216 -112 -274 -230 -32 -67 -34 -74 -34 -180
0 -105 2 -114 33 -177 78 -159 227 -245 407 -236 194 10 351 154 386 355 50
285 -237 543 -518 468z m240 -98 c77 -36 132 -89 168 -162 29 -59 31 -70 28
-147 -3 -66 -10 -95 -32 -140 -35 -70 -100 -138 -164 -169 -68 -34 -179 -38
-253 -10 -75 28 -152 98 -187 169 -24 49 -28 69 -28 142 0 74 4 92 29 140 56
107 110 156 209 192 67 24 159 18 230 -15z"/>
<path d="M6626 3108 c-13 -29 -87 -189 -165 -355 -77 -167 -141 -307 -141
-312 0 -11 56 -35 67 -28 5 3 69 134 142 292 74 157 136 284 138 282 2 -3 34
-179 71 -392 l68 -387 33 -14 c19 -8 36 -13 37 -11 6 6 334 710 334 717 0 3
-16 14 -35 23 l-36 17 -28 -62 c-16 -35 -63 -137 -106 -228 -43 -91 -90 -194
-106 -229 -16 -35 -31 -62 -33 -60 -3 2 -34 171 -71 374 -36 204 -68 377 -71
386 -4 15 -44 39 -65 39 -5 0 -20 -24 -33 -52z"/>
<path d="M13537 3134 c-21 -11 -25 -19 -18 -32 26 -51 364 -687 366 -690 2 -2
93 45 204 104 l201 106 -20 32 c-11 17 -24 30 -30 29 -5 -2 -77 -39 -159 -83
-82 -44 -151 -80 -154 -80 -2 0 -80 142 -172 315 -92 173 -172 315 -178 315
-7 -1 -24 -8 -40 -16z"/>
<path d="M13008 2895 l-28 -15 24 -53 c13 -28 85 -191 161 -362 76 -170 139
-312 141 -313 3 -4 395 168 407 178 7 6 -17 70 -26 70 -2 0 -77 -33 -168 -74
-90 -40 -165 -72 -167 -71 -2 1 -68 148 -147 326 -79 178 -150 325 -157 326
-7 1 -25 -4 -40 -12z"/>
<path d="M12760 2791 c-14 -4 -24 -14 -24 -22 1 -8 38 -128 83 -267 86 -268
93 -309 62 -377 -47 -104 -195 -163 -299 -120 -85 36 -104 72 -207 390 -42
132 -78 241 -79 242 -5 5 -76 -21 -76 -28 0 -5 38 -124 85 -266 93 -284 120
-337 194 -385 88 -56 180 -61 295 -18 127 48 193 155 183 294 -6 85 -157 560
-179 563 -7 0 -24 -2 -38 -6z"/>
<path d="M7910 2613 c-6 -21 -53 -194 -104 -385 l-93 -348 51 -14 c269 -77
353 -83 430 -29 57 40 89 102 90 172 0 65 -18 104 -71 156 -26 25 -31 35 -19
35 9 0 34 9 55 19 150 77 145 262 -10 341 -36 19 -279 90 -306 90 -7 0 -17
-17 -23 -37z m185 -79 c101 -29 151 -61 171 -111 29 -68 -17 -150 -95 -174
-37 -11 -54 -9 -148 14 -58 14 -107 28 -109 30 -2 2 2 26 10 53 8 27 24 86 36
132 12 45 28 82 34 82 7 0 52 -12 101 -26z m-93 -340 c111 -31 138 -44 172
-84 46 -55 33 -152 -27 -209 -39 -36 -95 -38 -217 -6 -58 15 -108 29 -111 31
-4 2 6 50 21 106 16 57 33 122 39 146 7 23 16 42 22 42 6 0 51 -12 101 -26z"/>
<path d="M11845 2527 c-121 -28 -221 -51 -222 -51 -1 -1 39 -174 88 -386 49
-212 89 -388 89 -391 0 -7 68 6 77 14 3 3 -12 79 -32 169 -21 90 -38 169 -39
177 -1 9 42 23 144 47 80 19 155 36 168 39 15 4 22 13 22 28 -1 52 -6 52 -184
12 -92 -21 -169 -36 -171 -34 -5 5 -64 263 -61 266 1 2 81 21 177 43 96 22
179 42 185 44 14 5 4 68 -11 72 -6 1 -109 -21 -230 -49z"/>
<path d="M8506 2100 c-37 -216 -64 -395 -60 -399 5 -4 108 -25 229 -46 121
-21 225 -40 231 -42 10 -4 31 64 22 72 -2 2 -90 19 -196 38 -106 19 -194 36
-196 38 -2 2 8 70 22 152 23 134 27 147 46 147 12 -1 90 -13 174 -29 84 -15
154 -25 157 -23 3 3 5 20 5 37 l0 32 -167 28 c-93 15 -170 29 -171 31 -3 2 38
256 42 261 1 1 90 -13 197 -31 206 -36 209 -36 209 14 0 25 -1 26 -222 64
-121 21 -228 41 -237 43 -14 3 -26 -54 -85 -387z"/>
<path d="M11357 2433 c-12 -3 -15 -11 -12 -26 3 -12 35 -188 70 -391 36 -204
67 -372 69 -374 6 -5 76 9 76 17 1 3 -30 180 -67 394 l-68 387 -25 -1 c-14 -1
-33 -3 -43 -6z"/>
<path d="M10907 2371 c-131 -14 -237 -29 -237 -33 0 -5 0 -22 0 -39 l0 -32 48
6 c26 4 79 9 117 13 l71 6 33 -323 c45 -444 36 -402 80 -394 20 4 38 8 40 11
2 2 -13 162 -33 355 -29 270 -35 354 -25 359 6 4 53 11 104 15 50 3 97 10 104
14 7 5 11 21 9 37 -3 26 -7 29 -38 30 -19 1 -142 -10 -273 -25z"/>
<path d="M9247 1978 c-107 -211 -195 -383 -194 -384 1 -1 21 -4 44 -8 l43 -6
50 100 50 100 48 0 c82 -1 323 -27 331 -36 4 -5 22 -55 40 -111 l32 -103 44 0
c25 0 45 1 45 3 0 1 -58 187 -129 412 l-129 410 -40 3 -40 3 -195 -383z m291
52 c34 -107 59 -196 58 -198 -6 -5 -306 24 -312 30 -3 3 37 89 88 192 51 102
96 182 99 178 4 -4 34 -95 67 -202z"/>
<path d="M10487 2071 c7 -293 1 -340 -44 -400 -36 -47 -103 -75 -183 -75 -104
0 -184 54 -210 142 -7 21 -14 156 -17 315 l-6 277 -42 0 -42 0 3 -182 c8 -383
10 -400 33 -453 47 -105 113 -158 220 -176 161 -26 301 45 351 177 18 51 20
77 20 349 l0 295 -44 0 -45 0 6 -269z"/>
<path d="M7117 2172 c-24 -26 -21 -67 5 -92 21 -20 21 -20 2 -34 -10 -8 -38
-20 -61 -25 -44 -11 -48 -17 -37 -45 8 -22 30 -20 89 8 67 31 105 74 112 123
5 35 2 43 -22 61 -34 27 -66 28 -88 4z"/>
</g>
</svg>
